<?xml version="1.0" encoding="UTF-8"?>
<svg width="45px" height="45px" viewBox="0 0 45 45" version="1.1" xmlns="http://www.w3.org/2000/svg" xmlns:xlink="http://www.w3.org/1999/xlink">
    <title>credit</title>
    <g id="Symbols" stroke="none" stroke-width="1" fill="none" fill-rule="evenodd">
        <g id="credit">
            <circle id="Oval" fill="#D4F6C2" cx="22.5" cy="22.5" r="22.5"></circle>
            <g id="Group" transform="translate(11.000000, 11.000000)" fill="#3BC821">
                <g id="_UI-Icons/Arrow---Up-Square" transform="translate(12.000000, 12.000000) scale(1, -1) translate(-12.000000, -12.000000) ">
                    <path d="M16.3351,2 C19.7387303,2 22.0001,4.4293097 22.0001,7.916 L22.0001,7.916 L22.0001,16.084 C22.0001,19.5670397 19.7320015,22 16.3351,22 L16.3351,22 L7.6661,22 C4.26231556,22 2.0001,19.5704962 2.0001,16.084 L2.0001,16.084 L2.0001,7.916 C2.0001,4.42950377 4.26231556,2 7.6661,2 L7.6661,2 Z M16.3351,3.5 L7.6661,3.5 C5.11559943,3.5 3.5001,5.23496374 3.5001,7.916 L3.5001,7.916 L3.5001,16.084 C3.5001,18.7650363 5.11559943,20.5 7.6661,20.5 L7.6661,20.5 L16.3351,20.5 C18.879141,20.5 20.5001,18.761218 20.5001,16.084 L20.5001,16.084 L20.5001,7.916 C20.5001,5.23467927 18.8853404,3.5 16.3351,3.5 L16.3351,3.5 Z M12.0001,7.164 C12.3797958,7.164 12.693591,7.44615388 12.7432534,7.81222944 L12.7501,7.914 L12.7501,14.268 L15.2166416,11.7931007 C15.4823404,11.5262676 15.8989516,11.5011741 16.1930264,11.7184027 L16.2772993,11.7908416 C16.5441324,12.0565404 16.5692259,12.4731516 16.3519973,12.7672264 L16.2795584,12.8514993 L12.5315584,16.6154993 C12.5069613,16.6397989 12.4819443,16.6617196 12.4555456,16.6819258 L12.5315584,16.6154993 C12.4947699,16.6524449 12.455092,16.684754 12.4132499,16.7124267 C12.3983505,16.7219026 12.3828929,16.731348 12.3670804,16.7402367 C12.3548042,16.7474984 12.3424921,16.7539599 12.3300461,16.7600558 C12.3119804,16.7685973 12.2928776,16.7770234 12.2733774,16.7846567 C12.2600222,16.7901454 12.2473661,16.7946796 12.2346201,16.7988632 C12.2146302,16.805202 12.1935266,16.8111577 12.1720681,16.816192 C12.1601367,16.8192187 12.148464,16.8216584 12.1367497,16.8238179 C12.1164698,16.8273287 12.095384,16.8303128 12.0740357,16.8324018 C12.059012,16.8341416 12.0443053,16.8351483 12.029585,16.8357238 C12.0198772,16.8358078 12.0100111,16.836 12.0001,16.836 L11.9716141,16.8357622 C11.9562239,16.8351809 11.9408481,16.8341284 11.9255103,16.8326045 L12.0001,16.836 C11.9532544,16.836 11.907412,16.8317051 11.8629449,16.8234876 C11.851736,16.8216584 11.8400633,16.8192187 11.8284429,16.8164987 C11.8066734,16.8111577 11.7855698,16.805202 11.7648653,16.7983689 C11.7528339,16.7946796 11.7401778,16.7901454 11.7276268,16.7852605 C11.7073224,16.7770234 11.6882196,16.7685973 11.6695541,16.7594181 C11.6577079,16.7539599 11.6453958,16.7474984 11.6332337,16.7406714 C11.6173071,16.731348 11.6018495,16.7219026 11.5867733,16.7119271 C11.5754188,16.7048004 11.5640519,16.6968219 11.5528645,16.6884913 L11.5446544,16.6819258 C11.5182557,16.6617196 11.4932387,16.6397989 11.4697699,16.6163301 L11.4686416,16.6154993 L7.72064156,12.8514993 C7.42837284,12.5579829 7.42938428,12.0831103 7.72290068,11.7908416 C7.98973376,11.5251427 8.40644806,11.5018242 8.69959487,11.7203035 L8.78355844,11.7931007 L11.2501,14.27 L11.2501,7.914 C11.2501,7.49978644 11.5858864,7.164 12.0001,7.164 Z" id="Combined-Shape" transform="translate(12.000100, 12.000000) rotate(-180.000000) translate(-12.000100, -12.000000) "></path>
                </g>
            </g>
        </g>
    </g>
</svg>